<svg width="16" height="16" xmlns="http://www.w3.org/2000/svg"><path d="M10.183 9.697a.485.485 0 0 1-.484.485H6.305a.485.485 0 0 1-.484-.485V6.304c0-.267.218-.484.484-.484h3.394c.266 0 .484.218.484.484v3.393zm2.908 2.546a.85.85 0 0 1-.848.847H3.757a.85.85 0 0 1-.848-.847V3.758c0-.466.382-.848.848-.848h8.486c.466 0 .848.382.848.848v8.485zM13.333 0H2.667A2.675 2.675 0 0 0 0 2.667v10.666C0 14.8 1.2 16 2.667 16h10.666C14.8 16 16 14.8 16 13.333V2.667C16 1.201 14.8 0 13.333 0z" fill="#9a9a9a" fill-rule="evenodd"/></svg>
